<svg xmlns="http://www.w3.org/2000/svg" data-name="Layer 1" viewBox="0 0 32 40" x="0px" y="0px"><title>Artboard 34</title><path d="M21,24.294H13.90918a.5.5,0,0,1,0-1H21a1.31788,1.31788,0,1,0,0-2.63575H15.9082a.5049.5049,0,0,1-.3125-.10937l-1.42285-1.13867a4.98971,4.98971,0,0,0-5.09863-.69043l-1.877.80566a.49958.49958,0,0,1-.39454-.918l1.877-.80566a5.99427,5.99427,0,0,1,6.11816.82715L16.084,19.6582H21A2.31788,2.31788,0,1,1,21,24.294Z"/><path d="M16.95605,29.5a4.95847,4.95847,0,0,1-1.57128-.25488L6.93262,26.42773a.50028.50028,0,1,1,.3164-.94921l8.45313,2.81738a3.988,3.988,0,0,0,3.291-.36133l9.86719-5.91894a1.31823,1.31823,0,1,0-1.35644-2.26075l-4.1709,2.502a.49976.49976,0,0,1-.51367-.85743l4.16992-2.502A2.318,2.318,0,1,1,29.374,22.87305L19.50781,28.792A4.95756,4.95756,0,0,1,16.95605,29.5Z"/><path d="M7,27.5H2a.5.5,0,0,1,0-1H6.5v-9H2a.5.5,0,0,1,0-1H7a.49971.49971,0,0,1,.5.5V27A.49971.49971,0,0,1,7,27.5Z"/><circle cx="3" cy="19.5" r="1"/><path d="M17.5,16.5a7,7,0,1,1,7-7A7.00849,7.00849,0,0,1,17.5,16.5Zm0-13a6,6,0,1,0,6,6A6.00657,6.00657,0,0,0,17.5,3.5Z"/><path d="M17.5,6.97168a.49971.49971,0,0,1-.5-.5v-.918a.5.5,0,1,1,1,0v.918A.49971.49971,0,0,1,17.5,6.97168Z"/><path d="M17.5,13.94629a.49971.49971,0,0,1-.5-.5v-.918a.5.5,0,0,1,1,0v.918A.49971.49971,0,0,1,17.5,13.94629Z"/><path d="M17.5,12.98438a2.02421,2.02421,0,0,1-2.10547-1.92676.5.5,0,0,1,1,0,1.1227,1.1227,0,0,0,2.21094,0,.86934.86934,0,0,0-.63574-.874l-1.25586-.418a1.87716,1.87716,0,0,1-1.31934-1.82325,2.11376,2.11376,0,0,1,4.21094,0,.5.5,0,0,1-1,0,1.1227,1.1227,0,0,0-2.21094,0,.86934.86934,0,0,0,.63574.874l1.25586.418a1.87714,1.87714,0,0,1,1.31934,1.82324A2.02421,2.02421,0,0,1,17.5,12.98438Z"/><text x="0" y="47" fill="#000000" font-size="5px" font-weight="bold" font-family="'Helvetica Neue', Helvetica, Arial-Unicode, Arial, Sans-serif">Created by David</text><text x="0" y="52" fill="#000000" font-size="5px" font-weight="bold" font-family="'Helvetica Neue', Helvetica, Arial-Unicode, Arial, Sans-serif">from the Noun Project</text></svg>