<svg xmlns="http://www.w3.org/2000/svg" xmlns:xlink="http://www.w3.org/1999/xlink" version="1.1" x="0px" y="0px" viewBox="0 0 146.34445 220.01819999999998" enable-background="new 0 0 146.34445 176.01456" xml:space="preserve"><path d="M83.94956,0.81145c-19.33204-2.875-38.62892,1.94532-54.32813,13.57616C13.9144,26.02041,3.68004,43.07317,0.80504,62.40325  c-5.94532,39.90236,21.6836,77.20115,61.58984,83.14648c10.65236,1.58788,21.6328,0.77928,31.93752-2.33008  c-1.01952,11.541-7.02736,22.29295-16.4258,29.18164c-0.83984,0.6172-1.0664,1.78123-0.51564,2.66795  c0.37892,0.60744,1.03124,0.94531,1.6992,0.94531c0.31252,0,0.62892-0.07228,0.92188-0.22459  c35.1914-18.28123,59.68752-52.60935,65.52736-91.83203C151.48471,44.05361,123.85577,6.75481,83.94956,0.81145z   M141.58627,83.36809c-4.9258,33.0586-23.54295,62.52539-50.76563,81.26952c4.77736-7.084,7.51172-15.49608,7.66016-24.18164  c0.01172-0.65236-0.29688-1.26952-0.82812-1.65236c-0.34376-0.25195-0.7578-0.38084-1.17188-0.38084  c-0.21876,0-0.4414,0.03712-0.65624,0.10936c-10.49608,3.63869-21.84376,4.70116-32.84376,3.06056  c-37.71877-5.61916-63.83984-40.87891-58.22264-78.59959C7.48076,44.71965,17.15656,28.59857,32.0042,17.60053  C46.84796,6.60445,65.09797,2.05169,83.36356,4.76849c18.27344,2.72072,34.39064,12.39452,45.38671,27.2422  C139.7464,46.85637,144.30504,65.09464,141.58627,83.36809z"/><path d="M83.3558,34.20988c-5.73048-2.72072-12.1836-3.04884-18.15624-0.91796c-11.71484,4.17384-18.2578,16.8242-14.89452,28.79492  c0.51952,1.85744,1.73048,3.39844,3.41408,4.3418c1.6836,0.94532,3.64064,1.1758,5.48048,0.65624  c1.85936-0.52148,3.39844-1.73436,4.34376-3.41408c0.9414-1.68164,1.1758-3.62892,0.65236-5.48436  c-1.32032-4.6992,1.25-9.66212,5.84764-11.3008c4.85156-1.72656,10.18752,0.81252,11.91408,5.65428  c1.72264,4.8418-0.81252,10.18556-5.65624,11.91016c-6.18752,2.20508-10.34376,8.09764-10.34376,14.666v9.95704  c0,3.97852,3.23828,7.21484,7.21484,7.21484s7.21484-3.23632,7.21484-7.21484v-9.95704c0-0.48048,0.30468-0.91212,0.7578-1.07228  c12.33592-4.39844,18.79688-18.01172,14.40236-30.3496C93.41832,41.71965,89.0902,36.92861,83.3558,34.20988z M79.80112,74.27432  c-2.04296,0.72852-3.41408,2.67384-3.41408,4.8418v9.95704c0,1.77344-1.4414,3.21484-3.21484,3.21484  s-3.21484-1.4414-3.21484-3.21484v-9.95704c0-4.88084,3.08984-9.25976,7.68752-10.89648  c6.91796-2.4668,10.54296-10.10352,8.07812-17.02344c-1.9414-5.44728-7.08592-8.85156-12.5664-8.85156  c-1.48048,0-2.98436,0.24804-4.45704,0.77148c-6.57032,2.34376-10.2422,9.43752-8.35548,16.15428c0,0,0,0,0,0.00196  c0.23436,0.8242,0.12892,1.6914-0.28908,2.43944c-0.42188,0.75-1.10936,1.28908-1.93752,1.52148  c-0.8242,0.23828-1.69532,0.12696-2.4414-0.291c-0.74608-0.41992-1.28908-1.10744-1.51952-1.93556  c-2.79688-9.95704,2.64064-20.4746,12.38672-23.94532c10.26172-3.6582,21.58204,1.71876,25.23828,11.97656  C95.43392,59.29777,90.06284,70.61809,79.80112,74.27432z"/><path d="M73.1722,96.84464c-3.97656,0-7.21484,3.23632-7.21484,7.21484s3.23828,7.21488,7.21484,7.21488  s7.21484-3.23632,7.21484-7.21484S77.14877,96.84464,73.1722,96.84464z M73.1722,107.27432  c-1.77344,0-3.21484-1.4414-3.21484-3.21484s1.44136-3.21484,3.21484-3.21484s3.21484,1.4414,3.21484,3.21484  S74.94564,107.27432,73.1722,107.27432z"/><text x="0" y="191.01456" fill="#000000" font-size="5px" font-weight="bold" font-family="'Helvetica Neue', Helvetica, Arial-Unicode, Arial, Sans-serif">Created by Kieu Thi Kim Cuong</text><text x="0" y="196.01456" fill="#000000" font-size="5px" font-weight="bold" font-family="'Helvetica Neue', Helvetica, Arial-Unicode, Arial, Sans-serif">from the Noun Project</text></svg>