<svg xmlns="http://www.w3.org/2000/svg" xmlns:xlink="http://www.w3.org/1999/xlink" version="1.1" x="0px" y="0px" viewBox="0 0 100 125" enable-background="new 0 0 100 100" xml:space="preserve"><g><path fill="#000000" d="M88.14,29.931c-0.217-0.234-0.519-0.371-0.837-0.381l-11.646-0.406l-0.933-10.671   c-0.028-0.318-0.181-0.612-0.425-0.816c-0.244-0.205-0.562-0.309-0.877-0.277l-42.808,3.747c-0.662,0.058-1.15,0.641-1.093,1.302   l0.406,4.644l-16.014,2.824c-0.654,0.115-1.09,0.738-0.974,1.392l9.024,51.186c0.102,0.583,0.609,0.993,1.182,0.993   c0.069,0,0.14-0.006,0.21-0.019l17.974-3.168L41.3,81.158c-0.012,0.319,0.104,0.629,0.322,0.862   c0.217,0.234,0.519,0.371,0.837,0.381L85.404,83.9c0.014,0.001,0.029,0.001,0.043,0.001c0.644,0,1.177-0.511,1.2-1.16l1.815-51.948   C88.474,30.474,88.358,30.164,88.14,29.931z M41.417,77.825l-17.294,3.049l-8.607-48.819l14.623-2.579l0.571,6.528l-8.869,1.564   c-0.654,0.115-1.09,0.738-0.974,1.392c0.102,0.583,0.609,0.993,1.182,0.993c0.069,0,0.14-0.006,0.21-0.019l8.662-1.527l0.453,5.186   l-8.216,1.449c-0.654,0.115-1.09,0.738-0.974,1.392c0.102,0.583,0.609,0.993,1.182,0.993c0.069,0,0.14-0.006,0.21-0.019   l8.008-1.413l0.477,5.45l-7.542,1.329c-0.654,0.115-1.09,0.738-0.974,1.392c0.102,0.583,0.609,0.993,1.182,0.993   c0.069,0,0.14-0.006,0.21-0.019l7.334-1.292l0.481,5.505l-6.858,1.208c-0.654,0.115-1.09,0.738-0.974,1.392   c0.102,0.583,0.609,0.993,1.182,0.993c0.069,0,0.14-0.006,0.21-0.019l6.65-1.172l0.568,6.5l-6.087,1.073   c-0.654,0.115-1.09,0.738-0.974,1.392c0.102,0.583,0.609,0.993,1.182,0.993c0.069,0,0.14-0.006,0.21-0.019l5.879-1.037l0.31,3.549   c0.028,0.318,0.181,0.612,0.425,0.816c0.217,0.183,0.491,0.282,0.772,0.282c0.035,0,0.069-0.001,0.104-0.005l6.172-0.54   L41.417,77.825z M43.166,28.994l-5.324,0.466c-0.662,0.058-1.15,0.641-1.093,1.302c0.055,0.626,0.58,1.097,1.196,1.097   c0.035,0,0.07-0.001,0.106-0.005l4.989-0.436l-0.183,5.22l-4.353,0.38c-0.662,0.058-1.15,0.641-1.093,1.302   c0.054,0.626,0.58,1.097,1.196,1.097c0.035,0,0.07-0.001,0.106-0.005l4.06-0.355l-0.192,5.487l-3.393,0.297   c-0.662,0.058-1.15,0.641-1.093,1.302c0.054,0.626,0.58,1.097,1.196,1.097c0.035,0,0.07-0.001,0.106-0.005l3.1-0.271l-0.194,5.542   l-2.427,0.212c-0.662,0.058-1.15,0.641-1.093,1.302c0.054,0.626,0.58,1.097,1.196,1.097c0.035,0,0.07-0.001,0.106-0.005   l2.134-0.186l-0.229,6.546l-1.337,0.117c-0.662,0.058-1.15,0.641-1.093,1.302c0.055,0.626,0.58,1.097,1.196,1.097   c0.035,0,0.07-0.001,0.106-0.005l1.043-0.091l-0.296,8.449l-5.269,0.461l-4.318-49.386l40.413-3.538l0.803,9.181l0.366,0.013   l-5.07-0.177c0.244-0.243,0.394-0.576,0.361-0.946c-0.058-0.661-0.646-1.149-1.302-1.093l-16.398,1.434l-6.835-0.238   C43.738,28.004,43.285,28.437,43.166,28.994z M84.287,81.456L43.744,80.04l1.734-49.543l40.54,1.413L84.287,81.456z"/><path fill="#000000" d="M50.433,39.607l29.845,1.039c0.015,0.001,0.029,0.001,0.043,0.001c0.644,0,1.177-0.511,1.2-1.16   c0.023-0.664-0.495-1.221-1.159-1.243l-29.845-1.039c-0.715-0.042-1.221,0.495-1.243,1.159   C49.251,39.028,49.769,39.584,50.433,39.607z"/><path fill="#000000" d="M50.164,47.191l29.846,1.041c0.014,0.001,0.029,0.001,0.043,0.001c0.644,0,1.177-0.511,1.2-1.16   c0.023-0.663-0.495-1.221-1.159-1.243l-29.846-1.041c-0.639-0.054-1.22,0.495-1.243,1.159S49.501,47.168,50.164,47.191z"/><path fill="#000000" d="M49.893,55.039l29.845,1.042c0.014,0.001,0.029,0.001,0.043,0.001c0.644,0,1.177-0.511,1.2-1.16   c0.023-0.663-0.495-1.221-1.159-1.243l-29.845-1.042c-0.642-0.027-1.22,0.495-1.243,1.159   C48.711,54.459,49.229,55.016,49.893,55.039z"/><path fill="#000000" d="M49.616,62.94l29.845,1.041c0.014,0.001,0.029,0.001,0.043,0.001c0.644,0,1.177-0.511,1.2-1.16   c0.023-0.663-0.495-1.221-1.159-1.243L49.7,60.539c-0.639-0.027-1.22,0.495-1.243,1.159S48.952,62.918,49.616,62.94z"/><path fill="#000000" d="M49.306,71.837l29.842,1.042c0.014,0.001,0.029,0.001,0.043,0.001c0.644,0,1.177-0.511,1.2-1.16   c0.023-0.663-0.495-1.221-1.159-1.243L49.39,69.435c-0.658-0.034-1.221,0.495-1.243,1.159   C48.124,71.257,48.643,71.814,49.306,71.837z"/></g><text x="0" y="115" fill="#000000" font-size="5px" font-weight="bold" font-family="'Helvetica Neue', Helvetica, Arial-Unicode, Arial, Sans-serif">Created by Hans Gerhard Meier</text><text x="0" y="120" fill="#000000" font-size="5px" font-weight="bold" font-family="'Helvetica Neue', Helvetica, Arial-Unicode, Arial, Sans-serif">from the Noun Project</text></svg>